<svg xmlns="http://www.w3.org/2000/svg" viewBox="0 0 64 64" xml:space="preserve">
  <path fill="#fff" d="M8 0h48a8 8 0 0 1 8 8v48a8 8 0 0 1-8 8H8a8 8 0 0 1-8-8V8a8 8 0 0 1 8-8"/>
  <path fill="none" stroke="#000" stroke-width="4" stroke-miterlimit="10" d="M10 42h12l20-20V10H10z"/>
  <path fill="none" stroke="#000" stroke-width="4" stroke-miterlimit="10" d="M22 54h32V22H42L22 42z"/>
  <path fill="none" stroke="#000" stroke-width="4" stroke-linejoin="round" stroke-miterlimit="10" d="M16 32c8.6 0 12-4.8 12-12"/>
  <path fill="none" stroke="#000" stroke-width="4" stroke-linejoin="round" stroke-miterlimit="10" d="M18 24c0 3.4 4.4 6 10 6"/>
  <path fill="none" stroke="#000" stroke-width="4" stroke-miterlimit="10" d="M16 20h16m-8 0v-4m20 32v-2l-4-12-4 12v2m.8-4h6.4"/>
</svg>
