<svg xmlns="http://www.w3.org/2000/svg" viewBox="0 41.891 512 353.745" width="512" height="353.745">
  <rect x="0" y="41.981" width="512" height="353.745" rx="10" fill="#fff" />
  <g fill="#2d2926" fill-rule="none" stroke-miterlimit="10" font-family="none" font-weight="none" font-size="none" text-anchor="none" style="mix-blend-mode:normal">
    <path d="M136.397 327.324v-5.478c0 .063-.441.063-1.134 0-.693.063-1.133.063-1.133 0v.441c0 1.511-1.26 2.518-3.212 2.581h-3.274v-33.183c0-2.141 1.007-3.589 2.518-3.589h.441v-2.267h-11.271v2.267h.441c1.511 0 2.519 1.448 2.519 3.589v32.365c0 2.141-1.008 3.589-2.519 3.589h-.44v2.267h17.064zm1.7-19.96h14.104v-4.345h-14.104zm24.619 22.479h5.667c-.063 0-.063-.441 0-1.134-.063-.693-.063-1.133 0-1.133h-.505c-1.448 0-2.392-1.26-2.456-3.212v-33.876h.819c2.203 0 3.652 1.007 3.652 2.519v.44h2.203v-7.681h-18.827v7.682h2.267v-.441c0-1.512 1.448-2.519 3.589-2.519h.882v33.498c0 2.141-1.007 3.59-2.518 3.59h-.441v2.267h2.96zm27.832-5.856c0 2.141-1.008 3.59-2.519 3.59h-.441v2.267h11.271v-2.267h-.441c-1.511 0-2.518-1.448-2.518-3.59v-11.019c0-1.763-.819-3.274-2.267-4.345 1.448-1.763 2.267-4.219 2.267-7.177v-9.13c0-3.904-3.463-6.549-8.752-6.549h-12.216v2.267h.441c1.512 0 2.519 1.448 2.519 3.59v32.364c0 2.141-1.007 3.59-2.519 3.59h-.44v2.267h11.271v-2.267h-.44c-1.512 0-2.519-1.448-2.519-3.59v-12.404h4.03c1.952 0 3.274.63 3.274 1.574zm-3.401-17.127h-3.904v-16.37h3.904c2.078 0 3.4.819 3.4 2.015v8.94c0 3.275-1.322 5.415-3.4 5.415m36.079 17.127-5.163-38.22h-9.886v2.267h.441c1.196 0 1.889 1.26 1.763 3.148l-4.345 32.869c-.315 2.141-1.511 3.589-3.022 3.589h-.441v2.267h11.019v-2.267h-.378c-1.385 0-2.141-1.448-1.889-3.589l.504-4.471h5.604l.504 4.471c.251 2.141-.503 3.589-1.889 3.589h-.378v2.267h11.02v-2.267h-.441c-1.512 0-2.708-1.448-3.023-3.589zm-6.36-9.129h-4.47l2.267-19.079zm32.302-29.091h-5.289c.063 0 .063.441 0 1.134.063.693.063 1.133 0 1.133h.505c1.448 0 2.392 1.26 2.456 3.212v25.06l-7.116-30.538h-9.193v2.267h.441c1.511 0 2.518 1.448 2.518 3.59v32.364c0 2.141-1.007 3.59-2.519 3.59h-.44v2.267h10.641v-2.267h-.44c-1.512 0-2.519-1.448-2.519-3.59v-25l7.177 30.854h6.109v-38.22c0-2.141 1.007-3.59 2.518-3.59h.441v-2.267h-2.96zm9.256 35.702v5.73h.882c1.322 2.014 4.156 3.274 7.808 3.274 5.164 0 8.627-3.148 8.627-7.871 0-4.785-2.141-10.957-6.233-16.812-3.779-5.288-5.667-9.948-5.667-13.789 0-1.26 1.322-2.141 3.337-2.141 1.952 0 3.274.629 3.274 1.511v2.392h5.415v-5.352h-.882c-1.322-2.014-4.156-3.274-7.808-3.274-5.226 0-8.689 3.085-8.689 7.682 0 5.037 2.141 10.64 6.297 16.497 3.652 5.164 5.541 10.389 5.541 14.231 0 1.322-1.322 2.203-3.212 2.203-1.952 0-3.274-.629-3.274-1.511v-2.77zm38.536 5.855v-5.478c0 .063-.441.063-1.134 0-.693.063-1.134.063-1.134 0v.441c0 1.511-1.26 2.518-3.212 2.581h-3.274v-33.183c0-2.141 1.008-3.589 2.519-3.589h.44v-2.267h-11.269v2.267h.44c1.512 0 2.519 1.448 2.519 3.589v32.365c0 2.141-1.007 3.589-2.519 3.589h-.44v2.267h17.064zm22.792-3.337-5.163-38.22h-9.886v2.267h.441c1.196 0 1.89 1.26 1.763 3.148l-4.345 32.869c-.315 2.141-1.511 3.589-3.023 3.589h-.44v2.267h11.019v-2.267h-.378c-1.385 0-2.141-1.448-1.89-3.589l.505-4.471h5.604l.503 4.471c.252 2.141-.503 3.589-1.888 3.589h-.378v2.267h11.019v-2.267h-.441c-1.511 0-2.707-1.448-3.022-3.589zm-6.359-9.129h-4.47l2.267-19.079zm20.779 14.985h5.667c-.063 0-.063-.441 0-1.134-.063-.693-.063-1.133 0-1.133h-.505c-1.448 0-2.392-1.26-2.456-3.212v-33.876h.819c2.203 0 3.652 1.007 3.652 2.519v.44h2.203v-7.681h-18.827v7.682h2.267v-.441c0-1.512 1.448-2.519 3.589-2.519h.882v33.498c0 2.141-1.007 3.59-2.518 3.59h-.441v2.267h2.96zm24.116-38.787v33.498c0 .756-1.322 1.196-3.275 1.196-2.014 0-3.337-.44-3.337-1.196v-33.498c0-.756 1.322-1.196 3.337-1.196 1.952 0 3.275.44 3.275 1.196m5.414 32.554v-31.609c0-4.093-3.463-6.864-8.689-6.864-5.288 0-8.752 2.77-8.752 6.864v31.608c0 4.093 3.463 6.864 8.752 6.864 5.226 0 8.689-2.77 8.689-6.864m20.654.378c0 2.141-1.007 3.59-2.518 3.59h-.441v2.267h11.271v-2.267h-.441c-1.511 0-2.519-1.448-2.519-3.59v-11.019c0-1.763-.818-3.274-2.267-4.345 1.448-1.763 2.267-4.219 2.267-7.177v-9.13c0-3.904-3.463-6.549-8.751-6.549h-12.216v2.267h.441c1.511 0 2.519 1.448 2.519 3.59v32.364c0 2.141-1.008 3.59-2.519 3.59h-.44v2.267h11.271v-2.267h-.44c-1.512 0-2.519-1.448-2.519-3.59v-12.404h4.03c1.952 0 3.274.63 3.274 1.574zm-3.4-17.127h-3.904v-16.37h3.904c2.078 0 3.4.819 3.4 2.015v8.94c0 3.275-1.322 5.415-3.4 5.415" fill-rule="nonzero"/>
    <path d="M251.398 110.41c.384-1.018 1.838-2.536 2.875-3 2.694-1.206 6.163.796 6.657 3.842.35 2.152-1.438 4.765-3.689 5.39-1.476.41-1.722.378-3.358-.438-1.227-.611-1.569-.954-2.117-2.134-.719-1.543-.813-2.48-.368-3.66m-33.95 18.169c8.907-5.855 19.306-9.725 29.433-10.949q5.601-.678 5.601-.147c0 .151-.887.987-1.973 1.859-5.47 4.394-13.707 11.999-13.278 12.26.132.079 1.48-.212 2.995-.648 3.283-.946 8.343-1.815 12.049-2.069l2.686-.184v-11.217h1.927v11.208l2.891.177c4.752.291 10.259 1.272 13.608 2.424.821.283 1.541.466 1.598.409.292-.292-8.361-8.26-12.673-11.669-2.084-1.648-2.889-2.44-2.686-2.644s1.342-.186 3.803.058c17.725 1.75 35.001 11.067 45.786 24.687 12.341 15.585 16.674 36.56 11.56 55.947-3.566 13.517-10.732 24.986-20.582 32.948-9.727 7.862-20.07 12.609-32.15 14.757-3.833.681-8.401 1.035-8.401.652 0-.154.943-1.192 2.096-2.305 2.7-2.607 5.955-6.944 7.947-10.581 1.517-2.772 1.606-2.874 2.506-2.874.874 0 .916.042.677.671-.96 2.526-3.981 7.449-6.431 10.482-1.737 2.151-1.763 2.206-1.069 2.296 1.057.138 5.534-.728 9.283-1.794 6.135-1.744 12.16-4.406 17.341-7.663l2.744-1.725.447-1.834q.759-3.113 2.214-3.48c.793-.2 1.916.153 2.366.745.279.368.687.081 2.855-2.008 1.391-1.341 3.278-3.367 4.193-4.503 1.848-2.295 4.755-6.558 4.581-6.718-.858-.788-5.791-3.645-8.976-5.199-3.427-1.672-4.286-1.984-5.364-1.95-1.03.033-1.309-.058-1.415-.46-.235-.898-4.65-2.029-13.413-3.439-5.53-.889-15.333-1.729-21.757-1.865l-2.892-.061-.084-.86c-.058-.592.055-.912.36-1.031.555-.213 11.283.258 15.635.686 1.784.176 3.307.256 3.384.179.28-.281 1.494-6.557 1.884-9.751.22-1.799.471-4.725.559-6.505l.16-3.236h-22.035v-2.197l10.947-.073 10.947-.072-.084-2.203c-.108-2.852-1.03-9.539-1.729-12.543l-.549-2.355-3.914.477c-3.7.45-12.083 1.065-14.507 1.065-1.085 0-1.112-.023-1.112-.951 0-1.164.047-1.174 5.922-1.351 4.38-.131 12.517-.936 12.892-1.275.267-.241-1.553-5.94-3.125-9.782a236 236 0 0 1-1.41-3.51c-.095-.251-.152-.433-.272-.549-.312-.298-1.05-.153-3.995.357-1.795.311-4.781.64-6.637.731l-3.374.166v-1.927l3.237-.179c2.981-.165 9.305-1.065 9.608-1.368.346-.345-4.2-8.139-6.698-11.483l-1.338-1.79-2.68-.079-2.679-.078v5.793c0 3.187-.11 5.794-.244 5.794-.299 0-.572-.963-.585-2.067-.006-.453-.255-1.366-.555-2.026-.44-.971-.545-1.8-.545-4.338v-3.137l-1.583.003c-2.697.004-4.508.312-4.689.796-.09.242-.844 1.216-1.677 2.162-1.184 1.348-1.682 1.722-2.29 1.722-.428 0-.777-.115-.777-.255 0-.309 1.832-2.787 2.388-3.23.22-.175.298-.38.176-.456-.572-.352-10.89 1.797-11.79 2.455l-1.487 1.08c-.515.374-1.383.802-1.927.951-1.651.452-2.78 1.315-3.343 2.556-.291.64-.532 1.357-.535 1.593-.003.235-.45.855-.993 1.377-2.783 2.675-10.029 12.962-10.029 14.24 0 .311 7.444 2.865 9.438 3.24.947.177 1.028.267 1.028 1.126 0 .72-.115.933-.503.933-.642 0-5.529-1.381-8.654-2.448-1.234-.42-1.839-.721-2.272-.56-.554.204-.832 1.154-1.788 3.555-1.942 4.873-3.583 12.365-3.583 16.358v1.548h16.834l-.086 1.033-.086 1.033-8.332.073-8.331.073.006 2.268c.009 3.896 1.083 10.1 2.513 14.524.689 2.129 2.169 6.058 2.284 6.058.044 0 1.096-.252 2.337-.561 2.643-.658 8.743-1.918 9.286-1.918.399 0 .505 1.023.162 1.562-.113.178-.514.386-.891.465-4.619.955-9.724 2.287-9.83 2.567-.074.193.461 1.499 1.19 2.904a261 261 0 0 1 1.977 3.888c.711 1.452 1.204 1.745 5.633 3.342l2.135.768v2.029c0 1.115-.057 2.029-.128 2.029-.07 0-.768-.253-1.55-.562-.783-.307-1.472-.512-1.531-.452s.309.715.819 1.456c.509.741 1.424 2.226 2.031 3.299 1.4 2.472 6.014 8.215 9.545 11.881 2.143 2.225 2.551 2.765 1.92 2.544-2.141-.747-7.114-5.531-11.368-10.94l-1.778-2.259-.677.614c-2.641 2.397-6.096 5.861-6.096 6.111 0 .303 5.009 3.37 7.574 4.636 1.652.816 5.549 2.439 7.764 3.23 2.684.96 9.843 2.7 11.969 2.909l2.007.198-1.16-1.318c-1.859-2.112-4.91-6.765-6.398-9.759-.756-1.521-1.375-2.838-1.375-2.926s.451-.121 1.004-.074c.956.082 1.063.198 2.234 2.427 2.23 4.245 5.108 8.283 7.925 11.113 1.469 1.476 2.605 2.752 2.523 2.835-.564.563-11.856-1.269-16.39-2.66-23.422-7.185-40.457-25.352-45.21-48.214-1.825-8.771-1.875-19.416-.13-27.277 3.694-16.643 13.293-30.773 27.056-39.822m2.752.407c8.046-4.676 14.103-7.022 22.643-8.767 2.045-.418 3.882-.771 4.08-.784s-.668.859-1.927 1.936a168 168 0 0 0-3.673 3.237c-.761.702-2.124 1.953-3.029 2.78-.906.828-3.733 3.492-6.282 5.922s-4.869 4.528-5.155 4.662c-.413.195-.905-.068-2.388-1.27-1.878-1.523-5.254-4.85-5.997-5.911-.38-.542-.298-.627 1.728-1.804m59.225 3.899c-4.967-4.776-9.818-9.255-13.04-12.042l-1.371-1.186 1.652.175c3.518.372 10.777 2.309 14.497 3.868 4.874 2.042 11.501 5.562 12.312 6.539.277.335-.078.805-2.083 2.754-2.898 2.818-5.846 5.196-6.309 5.088-.184-.043-2.73-2.381-5.658-5.195m-8.369 8.223c-.7-1.397-2.376-4.186-3.724-6.197-1.454-2.172-2.177-3.155-1.947-3.496.211-.316 1.234-.084 3.24.261 4.72.814 8.152 1.763 9.178 2.54 1.591 1.204 5.248 4.814 5.248 5.181 0 .545-9.138 4.252-10.481 4.252-.132 0-.815-1.143-1.516-2.541m17.221-2.634c.895-.65 2.904-2.454 4.467-4.009s2.878-2.852 2.925-2.881c.225-.139 5.192 4.214 7.768 6.809 2.418 2.435 7.455 8.614 7.423 9.107-.042.672-12.195 7.442-13.359 7.442-.044 0-.73-1.085-1.524-2.41-2.433-4.06-5.793-8.663-8.127-11.134-.67-.709-1.214-1.391-1.21-1.516s.741-.758 1.637-1.408m-85.543 6.728c3-4.056 7.165-8.459 11.329-11.978.909-.767 1.817-1.401 2.018-1.407s1.3.982 2.441 2.195c1.142 1.213 3.022 2.965 4.179 3.892s2.145 1.795 2.196 1.927-.492.891-1.206 1.685c-2.163 2.405-5.386 6.858-7.407 10.233-1.202 2.008-2.079 3.191-2.365 3.191-1.331 0-11.723-5.989-12.47-7.188-.214-.343.073-.909 1.286-2.551m27.318-7.401c.092-.061.193-.11.303-.174.338-.196 4.182-.298 11.451-.304l10.943-.008.9.804.899.803.073 34.503c.056 27.052.145 34.555.412 34.742.188.131 8.81.2 19.161.153l18.82-.088.665.773.666.773v8.211c0 7.808-.027 8.244-.554 8.913-.653.831-.927.898-5.781 1.417-8.149.871-13.867 1.11-26.714 1.115-13.802.006-15.981-.117-25.2-1.42-5.057-.714-6.237-1.065-6.74-2.002-.191-.357-.283-14.518-.283-43.383 0-41.901-.035-44.151.977-44.827m45.222 7.106c1.877-.531 6.669-2.442 8.192-3.267.455-.246 1.038-.451 1.294-.458.986-.023 10.412 12.821 10.412 14.187 0 .362-.584.62-3.305 1.462-3.472 1.073-8.624 2.281-12.394 2.907l-.963.159-1.325-4.061c-.729-2.234-1.876-5.36-2.548-6.946s-1.223-3.012-1.223-3.171.838-.523 1.86-.812m-38.717-2.846c1.564-.061 2.898-.165 2.965-.231s2.42-.088 5.233-.047l5.113.074.137 34.565c.076 19.009.239 34.719.362 34.909.124.192.619.554 1.101.807.786.411 2.83.476 19.409.617 16.056.137 18.566.213 18.792.572.143.227.263 2.861.265 5.852l.005 5.439-19.624-.004c-19.616-.005-24.983-.174-31.19-.984-4.321-.564-5.288-.829-5.709-1.569-.276-.482-.368-8.015-.436-35.725-.084-33.873.021-43.017.505-43.799.157-.255 1.096-.4 3.071-.477m-39.42 12.642c1.071-2.217 2.128-4.31 2.351-4.651s.465-.619.536-.619.967.594 1.99 1.321c3.261 2.315 8.935 5.429 10.769 5.908.58.152.579.164-.227 2.12-2.297 5.567-3.854 11.681-4.462 17.523l-.329 3.146h-8.304c-4.566 0-8.359-.056-8.428-.125-.287-.287.383-6.083 1.131-9.789 1.085-5.374 2.633-9.989 4.971-14.835m101.553 1.983c1.763-.595 8.099-3.994 10.389-5.571 2.486-1.713 2.791-1.853 3.124-1.446.203.249 1.281 2.311 2.394 4.584 3.658 7.463 5.418 13.99 6.326 23.478l.165 1.722h-17.3l-.187-2.411c-.477-6.131-2.007-12.282-4.525-18.188-.775-1.815-.811-2.024-.382-2.169m-16.069 4.44c4.297-.856 9.063-2.072 11.61-2.963 1.047-.366 1.927-.683 1.953-.705.141-.112 1.642 3.522 2.597 6.286 1.398 4.042 2.42 8.985 2.637 12.747l.17 2.96h-20.109l-.189-2.823c-.236-3.55-.84-7.732-1.677-11.635-.357-1.664-.617-3.059-.578-3.099.04-.039 1.653-.385 3.585-.771m-89.361 36.487c-.872-1.224-1.946-7.235-2.347-13.135l-.192-2.823h17.067l.195 3.098c.377 5.972 2.032 13.48 4.012 18.19.45 1.072.757 2.01.682 2.084-.166.166-6.388 2.502-7.152 2.686-1.044.249-10.358-7.419-12.267-10.1m86.351.689c.936-4.136 1.471-8.163 1.69-12.763l.186-3.884h20.277l-.146 2.271c-.397 6.145-1.694 12.281-3.657 17.3-.832 2.125-1.118 3.134-1.759 3.474-.658.348-1.689-.007-4.063-.586-4.15-1.012-10.934-2.351-11.944-2.359-1.266-.009-1.308-.259-.585-3.454m21.913-1.241c.984-3.416 1.854-8.585 2.085-12.385l.183-3.021h17.347l-.192 3.098c-.379 6.121-1.412 11.453-3.344 17.25-1.158 3.478-4.431 10.786-4.984 11.127-.14.086-1.117-.4-2.172-1.082-2.765-1.785-6.139-3.591-9.329-4.992-1.529-.671-2.828-1.267-2.889-1.325-.059-.056.019-.261.173-.454.481-.601 2.325-5.459 3.12-8.217m-106.029 8.624c-.315-.796-.817-2.067-1.119-2.823s-.456-1.371-.344-1.365 1.257 1.007 2.544 2.222c4.991 4.71 10.915 8.732 18.728 12.712 2.65 1.35 4.943 2.648 5.095 2.883l1.847 2.856 1.571 2.428-3.775 3.727c-2.076 2.051-3.86 3.728-3.963 3.729-.443.003-4.692-3.617-7.036-5.993-5.855-5.938-10.746-13.292-13.548-20.376m12.467 3.325c.056-.056 1.327-.523 2.826-1.039s2.757-.946 2.797-.957.371.654.736 1.48 1.112 2.266 1.661 3.201.956 1.741.907 1.79-1.365-.46-2.923-1.132c-2.697-1.162-6.223-3.125-6.004-3.344m68.965 27.155c1.476-1.603 3.281-3.617 4.009-4.476 1.136-1.341 1.458-1.562 2.271-1.562.521 0 .949.079.949.177 0 .209-2.656 3.257-4.163 4.779-2.182 2.205-5.752 4.807-5.752 4.193 0-.109 1.208-1.509 2.686-3.111m-21.964 9.661v-14.869h1.927v14.872zm-3.455 7.038c-.998-2.389.58-5.364 3.317-6.253.942-.307 1.769-.25 2.827.192 2.042.854 3.093 2.357 3.093 4.425 0 3.51-3.735 5.845-6.826 4.267-1.275-.651-1.842-1.27-2.411-2.632" fill-rule="evenodd"/>
  </g>
</svg>
